<?xml version="1.0" encoding="UTF-8" standalone="no"?><svg xmlns="http://www.w3.org/2000/svg" xmlns:xlink="http://www.w3.org/1999/xlink" fill="#78a608" height="414.1" preserveAspectRatio="xMidYMid meet" version="1" viewBox="-2.7 0.0 345.9 414.1" width="345.9" zoomAndPan="magnify"><g><g id="change1_1"><path d="M196.83,21.4c18.82,0,35.2,4.38,48.86,13.09c25.55,16.29,40.37,48.79,37.76,82.8 c-2.4,31.26-17.76,57.89-29.11,75.2c-26.61,40.6-60.97,74.34-94.2,106.96c-15.06,14.79-29.67,29.13-43.41,43.85 c58.65-1.49,117.32-7.19,175.05-17.04c1.39-0.24,2.77-0.35,4.14-0.35c11.7,0,22.05,8.43,24.09,20.35 c2.27,13.32-6.68,25.96-20,28.23c-70.64,12.04-142.65,18.13-214.37,18.13c-7.38,0-14.76-0.06-22.13-0.19 c-9.18-0.16-17.49-5.45-21.53-13.68c-4.04-8.24-3.13-18.05,2.35-25.4c24.41-32.71,53.45-61.23,81.53-88.8 c32.83-32.23,63.84-62.68,87.57-98.88c13.33-20.33,20.08-36.89,21.25-52.12c1.23-16-4.91-31.2-15.28-37.81 c-6.43-4.1-14.74-5.4-22.69-5.4c-4.63,0-9.13,0.44-13.06,1.02c-42.73,6.32-77.46,33.64-99.08,55.44 c-12.15,12.26-14.39,18.97-14.12,22.44c1.03,13.47-9.05,25.23-22.52,26.26c-0.65,0.05-1.3,0.08-1.94,0.08 c-12.65,0-23.33-9.78-24.32-22.6c-2.05-26.81,15.08-47.44,28.16-60.62c38.5-38.84,82.3-62.84,126.67-69.4 C183.54,21.93,190.33,21.4,196.83,21.4 M196.83,0c-7.52,0-15.42,0.6-23.48,1.8C124.37,9.04,76.39,35.15,34.61,77.3 c-37.33,37.66-35.05,67.51-34.3,77.33c1.82,23.76,21.88,42.37,45.66,42.37c1.2,0,2.42-0.05,3.63-0.14 c12.17-0.93,23.29-6.57,31.27-15.87c7.21-8.41,11.07-18.9,11.05-29.87c0.94-1.49,3.12-4.47,7.84-9.23 c19.33-19.5,50.11-43.88,87-49.33c3.55-0.53,6.89-0.79,9.93-0.79c7.41,0,10.43,1.56,11.18,2.04c2.27,1.45,6.21,8.25,5.45,18.12 c-0.88,11.48-6.54,24.84-17.81,42.03c-22.46,34.27-52.67,63.93-84.66,95.34c-28.67,28.15-58.3,57.25-83.69,91.28 c-10.34,13.86-12.03,32.11-4.42,47.63c7.62,15.52,23.09,25.35,40.37,25.66c7.46,0.13,15.03,0.2,22.51,0.2 c72.89,0,146.22-6.2,217.97-18.43c12.08-2.06,22.63-8.7,29.71-18.69c7.08-10,9.85-22.15,7.79-34.23 c-3.77-22.11-22.77-38.16-45.19-38.16c-2.58,0-5.18,0.22-7.73,0.66c-38.8,6.62-78.21,11.34-117.71,14.13 c1.53-1.51,3.08-3.02,4.63-4.55c34.07-33.45,69.26-68.01,97.14-110.53c12.64-19.29,29.78-49.12,32.55-85.3 c3.21-41.78-15.48-82.01-47.6-102.49C240.08,5.53,219.77,0,196.83,0L196.83,0z" fill="#ffffff"/></g><g id="change2_1"><path d="M85.63,392.63c-7.38,0-14.76-0.06-22.13-0.19c-9.18-0.16-17.49-5.45-21.53-13.68c-4.04-8.24-3.13-18.05,2.35-25.4 c24.41-32.71,53.45-61.23,81.53-88.8c32.83-32.23,63.84-62.68,87.57-98.88c13.33-20.33,20.08-36.89,21.25-52.12 c1.23-16-4.91-31.2-15.28-37.81c-10.17-6.48-25.06-5.96-35.75-4.37c-42.73,6.32-77.46,33.64-99.08,55.44 c-12.15,12.26-14.39,18.97-14.12,22.44c1.03,13.47-9.05,25.23-22.52,26.26c-13.48,1.06-25.23-9.05-26.26-22.52 c-2.05-26.81,15.08-47.44,28.16-60.62c38.5-38.84,82.3-62.84,126.67-69.4c27.54-4.07,50.83-0.2,69.21,11.52 c25.55,16.29,40.37,48.79,37.76,82.8c-2.4,31.26-17.76,57.89-29.11,75.2c-26.61,40.6-60.97,74.34-94.2,106.96 c-15.06,14.79-29.67,29.13-43.41,43.85c58.65-1.49,117.32-7.19,175.05-17.04c13.31-2.27,25.96,6.68,28.23,20 c2.27,13.32-6.68,25.96-20,28.23C229.35,386.55,157.35,392.63,85.63,392.63z"/></g></g></svg>