<?xml version="1.0" encoding="UTF-8" standalone="no"?><svg xmlns="http://www.w3.org/2000/svg" xmlns:xlink="http://www.w3.org/1999/xlink" fill="#78a608" height="472" preserveAspectRatio="xMidYMid meet" version="1" viewBox="-1.4 0.0 158.5 472.0" width="158.5" zoomAndPan="magnify"><g><g id="change1_1"><path d="M109.1,21.4c4.71,0,9.41,1.36,13.5,4.06c7.94,5.26,12.11,14.65,10.69,24.06 c-18.76,123.79-23.16,249.83-13.1,374.62c1.09,13.47-8.95,25.26-22.42,26.35c-0.67,0.05-1.33,0.08-1.99,0.08c0,0,0,0,0,0 c-12.62,0-23.32-9.7-24.35-22.5c-8.66-107.39-6.92-215.67,5.16-322.76c-3.82,4.42-7.44,8.99-10.83,13.71 c-4.78,6.66-12.28,10.2-19.9,10.2c-4.94,0-9.92-1.49-14.24-4.59c-10.98-7.88-13.49-23.16-5.61-34.14 c18.68-26.03,42.98-48.67,70.27-65.47C100.21,22.61,104.66,21.4,109.1,21.4 M109.1,0C109.1,0,109.1,0,109.1,0 c-8.5,0-16.82,2.36-24.05,6.81C55.37,25.09,28.94,49.71,8.62,78.03c-7.14,9.95-9.98,22.09-8,34.18 c1.99,12.09,8.56,22.68,18.52,29.82c7.84,5.63,17.08,8.61,26.72,8.61c1.6,0,3.2-0.08,4.78-0.25 c-7.83,92.91-8.02,186.69-0.55,279.41c1.91,23.65,21.97,42.18,45.69,42.18c1.23,0,2.48-0.05,3.71-0.15 c12.21-0.98,23.31-6.67,31.25-16c7.94-9.33,11.77-21.19,10.78-33.41c-9.93-123.15-5.58-247.53,12.92-369.69 c2.67-17.59-5.2-35.3-20.03-45.12C126.88,2.63,118.13,0,109.1,0L109.1,0z" fill="#ffffff"/></g><g id="change2_1"><path d="M95.78,450.58c-12.62,0-23.32-9.7-24.36-22.5c-8.66-107.39-6.92-215.67,5.16-322.76c-3.82,4.42-7.44,8.99-10.83,13.71 c-7.88,10.98-23.16,13.49-34.14,5.61c-10.98-7.88-13.49-23.16-5.61-34.14c18.68-26.03,42.98-48.67,70.27-65.47 c8.11-4.99,18.38-4.83,26.33,0.43s12.11,14.65,10.69,24.06c-18.76,123.79-23.16,249.83-13.1,374.62 c1.09,13.47-8.95,25.26-22.42,26.35C97.1,450.55,96.44,450.58,95.78,450.58z"/></g></g></svg>