<?xml version="1.0" encoding="UTF-8" standalone="no"?><svg xmlns="http://www.w3.org/2000/svg" xmlns:xlink="http://www.w3.org/1999/xlink" fill="#78a608" height="477.9" preserveAspectRatio="xMidYMid meet" version="1" viewBox="-3.4 0.0 347.4 477.9" width="347.4" zoomAndPan="magnify"><g><g id="change1_1"><path d="M280.23,21.4c12.48,0,23.04,9.41,24.33,21.94c13.35,128.92,18.02,259.96,13.87,389.5 c-0.42,13.24-11.29,23.68-24.44,23.68c-0.27,0-0.53,0-0.8-0.01c-13.5-0.43-24.1-11.73-23.67-25.23 c1.77-55.39,1.91-111.08,0.41-166.74c-0.14,0-0.29,0-0.43,0c-0.84,0-1.59-0.02-2.2-0.04c-74.37-2.1-149.63-6.64-223.69-13.48 c-9.84-0.91-18.17-7.65-21.1-17.08c-2.94-9.43,0.09-19.71,7.67-26.05c58.46-48.86,108.84-106.23,149.76-170.5 c4.66-7.32,12.58-11.33,20.66-11.33c4.49,0,9.04,1.24,13.11,3.83c11.4,7.25,14.75,22.37,7.5,33.77 c-33.32,52.34-72.52,100.37-116.95,143.36c50.61,3.84,101.51,6.59,152.07,8.2l-0.57-169.28c-0.04-13.04,10.14-23.82,23.16-24.51 C279.37,21.42,279.8,21.4,280.23,21.4 M280.23,0c-0.8,0-1.61,0.02-2.42,0.06c-17.13,0.91-31.63,11.1-38.74,25.53 c-3.47-5.37-8.12-10.09-13.85-13.74c-7.38-4.7-15.89-7.18-24.61-7.18c-15.77,0-30.25,7.94-38.71,21.23 C122.17,88.32,73.24,144.03,16.47,191.48C2.21,203.4-3.44,222.57,2.09,240.31c5.53,17.74,21.06,30.32,39.57,32.03 c68.66,6.34,138.33,10.72,207.36,13.02c0.95,48.47,0.66,97.24-0.88,145.25c-0.81,25.28,19.1,46.5,44.37,47.31 c0.56,0.02,1.02,0.02,1.48,0.02c24.9,0,45.03-19.5,45.83-44.4c4.17-130.51-0.53-262.53-13.97-392.39 C323.43,17.69,303.81,0,280.23,0L280.23,0z M151.87,188.87c30.4-33.03,58.07-68.61,82.62-106.26l0.37,110.45 C207.28,192,179.55,190.6,151.87,188.87L151.87,188.87z" fill="#ffffff"/></g><g id="change2_1"><path d="M294,456.53c-0.27,0-0.53,0-0.8-0.01c-13.5-0.43-24.1-11.73-23.67-25.23c1.77-55.39,1.91-111.08,0.41-166.74 c-1.02,0.01-1.92-0.02-2.62-0.04c-74.37-2.1-149.63-6.64-223.69-13.48c-9.84-0.91-18.17-7.65-21.1-17.08 c-2.94-9.43,0.09-19.71,7.67-26.05c58.46-48.86,108.84-106.23,149.76-170.5c7.26-11.4,22.38-14.75,33.77-7.5 c11.4,7.25,14.75,22.37,7.5,33.77c-33.32,52.34-72.52,100.37-116.95,143.36c50.61,3.84,101.51,6.59,152.07,8.2l-0.57-169.28 c-0.04-13.04,10.14-23.82,23.16-24.51c13.04-0.68,24.29,8.94,25.63,21.91c13.35,128.92,18.02,259.96,13.87,389.5 C318.01,446.09,307.15,456.53,294,456.53z"/></g></g></svg>