<?xml version="1.0" encoding="UTF-8" standalone="no"?><svg xmlns="http://www.w3.org/2000/svg" xmlns:xlink="http://www.w3.org/1999/xlink" fill="#78a608" height="460.6" preserveAspectRatio="xMidYMid meet" version="1" viewBox="-2.3 0.0 322.5 460.6" width="322.5" zoomAndPan="magnify"><g><g id="change1_1"><path d="M102.14,21.4c23.24,0,46.48,1.38,69.54,4.13c23.56,2.81,50.27,8.29,69.71,27.56 c16.91,16.76,24.5,40.44,21.37,66.67c-2.7,22.64-13.38,44.83-29.29,60.88c-4.64,4.69-9.57,8.91-14.7,12.74 c29.52,10.63,52.99,29.9,65.35,54.01c13.4,26.14,13.89,57.45,1.39,88.16c-10.59,26.01-30.26,50.52-53.97,67.24 c-33.92,23.93-75.16,36.38-116.41,36.38c-23,0-46.01-3.87-67.76-11.78c-12.7-4.62-19.25-18.65-14.63-31.35 c3.61-9.94,12.99-16.11,22.99-16.11c2.78,0,5.6,0.48,8.36,1.48c16.45,5.98,33.85,8.91,51.24,8.91c31.2,0,62.37-9.41,88.01-27.51 c30.02-21.17,52.79-62.79,37.25-93.11c-7.63-14.88-24.35-26.78-45.87-32.66c-17.6-4.8-37.02-5.61-56.37-5.61 c-4.91,0-9.81,0.05-14.68,0.1c-0.1,0-0.21,0-0.31,0c-12.23,0-22.49-9.01-24.18-21.09c-1.7-12.19,5.92-23.74,17.79-26.97 c28.77-7.84,61.37-16.73,81.75-37.29c8.26-8.33,14.04-20.39,15.46-32.24c0.76-6.33,0.82-18.14-7.23-26.12 c-8.9-8.81-25-11.81-41.07-13.73c-21.13-2.52-42.44-3.79-63.74-3.79c-17.97,0-35.94,0.9-53.81,2.7c-0.83,0.08-1.65,0.12-2.46,0.12 c-12.42,0-23.06-9.4-24.33-22.01c-1.35-13.44,8.45-25.44,21.89-26.79C62.91,22.38,82.52,21.4,102.14,21.4 M102.14,0L102.14,0 C81.86,0,61.39,1.03,41.28,3.05C16.11,5.58-2.3,28.12,0.23,53.28c2.37,23.53,21.99,41.27,45.62,41.27c1.52,0,3.07-0.08,4.59-0.23 c17.09-1.72,34.47-2.59,51.68-2.59c20.41,0,41,1.22,61.2,3.63c15.69,1.87,25.3,4.46,28.54,7.68c0.76,0.75,1.58,3.85,1.04,8.38 c-0.84,7.06-4.54,14.8-9.4,19.71c-16.34,16.48-46.01,24.57-72.18,31.7c-22.19,6.05-36.54,27.79-33.36,50.58 c3.14,22.54,22.64,39.54,45.38,39.54l0.58,0c4.75-0.05,9.57-0.1,14.4-0.1c17.11,0,35.09,0.59,50.73,4.85 c15.5,4.23,27.64,12.37,32.46,21.77c7.88,15.36-3.51,46.79-30.54,65.86c-21.57,15.22-48.44,23.6-75.67,23.6 c-15.24,0-30.02-2.56-43.92-7.62c-5.05-1.84-10.33-2.77-15.68-2.77c-19.21,0-36.53,12.14-43.1,30.2 c-4.19,11.51-3.64,23.97,1.54,35.07c5.18,11.1,14.38,19.52,25.89,23.71c23.85,8.67,49.11,13.07,75.08,13.07 c46.19,0,91.92-14.31,128.75-40.3c26.97-19.02,49.37-46.96,61.46-76.66c14.89-36.58,14.12-74.23-2.16-106 c-10.28-20.04-26.57-37.17-47.2-49.98c15.16-18.4,25.23-41.67,28.05-65.35c3.93-32.93-5.85-62.91-27.55-84.42 c-12.71-12.59-33.54-27.79-82.24-33.61C150.42,1.44,126.17,0,102.14,0L102.14,0z" fill="#ffffff"/></g><g id="change2_1"><path d="M115.11,439.18c-23,0-46.01-3.87-67.76-11.78c-12.7-4.62-19.25-18.65-14.63-31.35c4.62-12.7,18.65-19.25,31.35-14.63 c45.95,16.71,99.31,9.58,139.25-18.6c30.02-21.17,52.79-62.79,37.25-93.11c-7.63-14.88-24.35-26.78-45.87-32.66 c-22.07-6.02-46.98-5.76-71.04-5.51c-12.37,0.15-22.79-8.9-24.49-21.09c-1.7-12.19,5.92-23.74,17.79-26.97 c28.77-7.84,61.37-16.73,81.75-37.29c8.26-8.33,14.04-20.39,15.46-32.24c0.76-6.33,0.82-18.14-7.23-26.12 c-8.9-8.81-25-11.81-41.07-13.73c-38.96-4.65-78.51-5.02-117.55-1.09c-13.44,1.34-25.43-8.45-26.79-21.89 c-1.35-13.44,8.45-25.44,21.89-26.79c42.59-4.29,85.75-3.89,128.25,1.19c23.56,2.81,50.27,8.29,69.71,27.56 c16.91,16.76,24.5,40.44,21.37,66.67c-2.7,22.64-13.38,44.83-29.29,60.88c-4.64,4.69-9.57,8.91-14.7,12.74 c29.52,10.63,52.99,29.9,65.35,54.01c13.4,26.14,13.89,57.45,1.39,88.16c-10.59,26.01-30.26,50.52-53.97,67.24 C197.6,426.73,156.36,439.18,115.11,439.18z"/></g></g></svg>